<svg width="24" height="24" viewBox="0 0 25 24" fill="none" xmlns="http://www.w3.org/2000/svg">
<path d="M12.5772 16.8C15.3865 16.8 17.6712 14.6472 17.6712 12C17.6712 9.35275 15.3865 7.19995 12.5772 7.19995C9.76782 7.19995 7.48315 9.35275 7.48315 12C7.48315 14.6472 9.76782 16.8 12.5772 16.8ZM12.5772 9.59995C13.9576 9.59995 15.1242 10.6992 15.1242 12C15.1242 13.3008 13.9576 14.4 12.5772 14.4C11.1967 14.4 10.0302 13.3008 10.0302 12C10.0302 10.6992 11.1967 9.59995 12.5772 9.59995Z" fill="white"/>
<path d="M0.91823 16.9632L2.19173 19.0392C2.86796 20.1396 4.4955 20.5524 5.6684 19.9152L6.34208 19.548C7.07885 20.0941 7.89118 20.543 8.75664 20.8824V21.6C8.75664 22.9236 9.89897 24 11.3036 24H13.8507C15.2553 24 16.3977 22.9236 16.3977 21.6V20.8824C17.2628 20.543 18.0751 20.0945 18.8122 19.5492L19.4859 19.9164C20.6613 20.5524 22.2851 20.142 22.9638 19.0392L24.2361 16.9644C24.5736 16.4132 24.6651 15.7584 24.4905 15.1437C24.316 14.529 23.8896 14.0047 23.3051 13.686L22.662 13.3356C22.7988 12.4507 22.7988 11.5517 22.662 10.6668L23.3051 10.3164C23.8894 9.99748 24.3155 9.4732 24.49 8.85859C24.6646 8.24398 24.5732 7.58923 24.2361 7.038L22.9638 4.9632C22.2876 3.8592 20.6613 3.4452 19.4859 4.0848L18.8122 4.452C18.0754 3.90589 17.2631 3.45696 16.3977 3.1176V2.4C16.3977 1.0764 15.2553 0 13.8507 0H11.3036C9.89897 0 8.75664 1.0764 8.75664 2.4V3.1176C7.89148 3.45701 7.07921 3.9055 6.34208 4.4508L5.6684 4.0836C4.49168 3.4464 2.86669 3.8592 2.19046 4.962L0.91823 7.0368C0.580729 7.58796 0.489201 8.24281 0.663752 8.85752C0.838302 9.47222 1.26466 9.9965 1.84916 10.3152L2.49228 10.6656C2.35504 11.5501 2.35504 12.4487 2.49228 13.3332L1.84916 13.6836C1.26483 14.0028 0.838672 14.5272 0.664157 15.1421C0.489641 15.7569 0.581012 16.4118 0.91823 16.9632ZM5.1539 13.6536C5.0101 13.1128 4.93697 12.5575 4.93613 12C4.93613 11.4456 5.00999 10.8888 5.15263 10.3464C5.21979 10.0936 5.1977 9.82705 5.0897 9.58713C4.98169 9.34722 4.79366 9.147 4.55408 9.0168L3.12394 8.2368L4.39489 6.162L5.85305 6.9564C6.09085 7.08606 6.36686 7.13954 6.63966 7.10881C6.91245 7.07809 7.16731 6.96482 7.36598 6.786C8.22752 6.01387 9.26646 5.43938 10.402 5.1072C10.6628 5.03216 10.8912 4.88019 11.0536 4.67367C11.2159 4.46715 11.3035 4.21699 11.3036 3.96V2.4H13.8507V3.96C13.8508 4.21699 13.9384 4.46715 14.1007 4.67367C14.2631 4.88019 14.4914 5.03216 14.7523 5.1072C15.8876 5.43985 16.9264 6.01428 17.7883 6.786C17.9872 6.96447 18.242 7.07751 18.5147 7.10822C18.7874 7.13893 19.0633 7.08567 19.3012 6.9564L20.7581 6.1632L22.0316 8.238L20.6002 9.0168C20.3608 9.14714 20.1729 9.34738 20.0649 9.58725C19.9569 9.82712 19.9347 10.0936 20.0017 10.3464C20.1443 10.8888 20.2182 11.4456 20.2182 12C20.2182 12.5532 20.1443 13.11 20.0004 13.6536C19.9336 13.9065 19.9559 14.1731 20.0642 14.413C20.1724 14.6529 20.3606 14.853 20.6002 14.9832L22.0304 15.762L20.7594 17.8368L19.3012 17.0436C19.0635 16.9137 18.7874 16.8602 18.5146 16.8909C18.2418 16.9216 17.9869 17.035 17.7883 17.214C16.9268 17.9861 15.8878 18.5606 14.7523 18.8928C14.4914 18.9678 14.2631 19.1198 14.1007 19.3263C13.9384 19.5328 13.8508 19.783 13.8507 20.04L13.8532 21.6H11.3036V20.04C11.3035 19.783 11.2159 19.5328 11.0536 19.3263C10.8912 19.1198 10.6628 18.9678 10.402 18.8928C9.26668 18.5601 8.22786 17.9857 7.36598 17.214C7.16769 17.0345 6.91268 16.9209 6.63963 16.8903C6.36658 16.8598 6.09042 16.914 5.85305 17.0448L4.39617 17.8392L3.12266 15.7644L4.55408 14.9832C4.79375 14.853 4.98191 14.6529 5.09013 14.413C5.19835 14.1731 5.22074 13.9065 5.1539 13.6536Z" fill="white"/>
</svg>
