<svg width="26" height="36" viewBox="0 0 76 86" fill="none" xmlns="http://www.w3.org/2000/svg">
<path d="M54.1999 16C58.6182 16 62.1999 12.4183 62.1999 8C62.1999 3.58172 58.6182 0 54.1999 0C49.7817 0 46.2 3.58172 46.2 8C46.2 12.4183 49.7817 16 54.1999 16Z" fill="black"/>
<path d="M73.6 19C71.6 18 69.2 18.7 68.2 20.7L64.7 27.3L49.2999 17.6C48.6999 17.2 48 17 47.2 17H30.2C28.7 17 27.4 17.8 26.7 19.1L20.2 31.1C19.1 33 19.8999 35.5 21.7999 36.5C22.3999 36.8 23.1 37 23.7 37C25.1 37 26.5 36.2 27.2 34.9L32.5999 25H38.5L20.7999 58H4.19995C1.99995 58 0.199951 59.8 0.199951 62C0.199951 64.2 1.99995 66 4.19995 66H23.2C24.7 66 26 65.2 26.7 63.9L33.7 51L45.2 61.7L44.2999 81.8C44.0999 84 45.8 85.9 48 86C48.1 86 48.1 86 48.2 86C50.3 86 52.1 84.3 52.2 82.2L53.2 60.2C53.3 59 52.8 57.9 51.9 57.1L42.2 48.1L52.4 29.1L64 36.4C64.9 37 66.1 37.2 67.2 36.9C68.3 36.6 69.2 35.9 69.7 34.9L75.2 24.4C76.3 22.5 75.6 20.1 73.6 19Z" fill="black"/>
</svg>
