<svg width="24" height="24" viewBox="0 0 24 24" fill="none" xmlns="http://www.w3.org/2000/svg">
<path d="M20.52 3.48C18.24 1.32 15.24 0 12 0C8.76 0 5.76 1.32 3.48 3.48C1.32 5.76 0 8.76 0 12C0 18.6 5.4 24 12 24C18.6 24 24 18.6 24 12C24 8.76 22.68 5.76 20.52 3.48ZM20.4 13.2H21.48C21.36 14.52 20.88 15.72 20.28 16.8H15.36C15.48 16.44 15.6 16.08 15.6 15.6C15.6 13.56 14.04 12 12 12C11.88 12 11.64 12 11.52 12L9.36 8.88C9 8.4 8.28 8.28 7.68 8.64C7.2 9 7.08 9.72 7.44 10.32L9.36 13.2C8.76 13.8 8.4 14.64 8.4 15.6C8.4 16.08 8.52 16.44 8.64 16.8H3.72C3.12 15.72 2.64 14.52 2.52 13.2H3.6C4.32 13.2 4.8 12.72 4.8 12C4.8 11.28 4.32 10.8 3.6 10.8H2.52C2.76 9 3.48 7.44 4.44 6.12L5.16 6.84C5.4 7.08 5.64 7.2 6 7.2C6.36 7.2 6.6 7.08 6.84 6.84C7.32 6.36 7.32 5.64 6.84 5.16L6.12 4.44C7.44 3.36 9 2.76 10.8 2.52V3.6C10.8 4.32 11.28 4.8 12 4.8C12.72 4.8 13.2 4.32 13.2 3.6V2.52C15 2.76 16.56 3.48 17.88 4.44L17.16 5.16C16.68 5.64 16.68 6.36 17.16 6.84C17.4 7.08 17.64 7.2 18 7.2C18.36 7.2 18.6 7.08 18.84 6.84L19.56 6.12C20.64 7.44 21.24 9 21.48 10.8H20.4C19.68 10.8 19.2 11.28 19.2 12C19.2 12.72 19.68 13.2 20.4 13.2ZM10.8 15.6C10.8 14.88 11.28 14.4 12 14.4C12.72 14.4 13.2 14.88 13.2 15.6C13.2 16.32 12.72 16.8 12 16.8C11.28 16.8 10.8 16.32 10.8 15.6ZM5.64 19.2H18.24C16.56 20.64 14.28 21.6 11.88 21.6C9.48 21.6 7.32 20.64 5.64 19.2Z" fill="white"/>
</svg>
