<svg width="40" height="22" viewBox="0 0 40 22" fill="none" xmlns="http://www.w3.org/2000/svg">
<path fill-rule="evenodd" clip-rule="evenodd" d="M27 1C27 0.4477 27.4477 0 28 0H32C32.5523 0 33 0.4477 33 1V3H36C36.5523 3 37 3.4477 37 4V10H40V12H37V18C37 18.5523 36.5523 19 36 19H33V21C33 21.5523 32.5523 22 32 22H28C27.4477 22 27 21.5523 27 21V12H13V21C13 21.5523 12.5523 22 12 22H8C7.4477 22 7 21.5523 7 21V19H4C3.44772 19 3 18.5523 3 18V12H0V10H3V4C3 3.4477 3.44772 3 4 3H7V1C7 0.4477 7.4477 0 8 0H12C12.5523 0 13 0.4477 13 1V10H27V1ZM9 20H11V2H9V20ZM7 5H5V17H7V5ZM33 17V5H35V17H33ZM31 2V20H29V2H31Z" fill="#333333"/>
</svg>
