<svg width="24" height="24" viewBox="0 0 24 24" fill="none" xmlns="http://www.w3.org/2000/svg">
<path d="M4.8 0V24H8.4V13.7143H15.6V24H19.2V0H15.6V10.2857H8.4V0H4.8ZM1.2 17.1429C1.2 17.5975 1.32643 18.0335 1.55147 18.355C1.77652 18.6765 2.08174 18.8571 2.4 18.8571H3.6V5.14286H2.4C2.08174 5.14286 1.77652 5.32347 1.55147 5.64496C1.32643 5.96645 1.2 6.40249 1.2 6.85714V10.2857H0V13.7143H1.2V17.1429ZM22.8 6.85714C22.8 6.40249 22.6736 5.96645 22.4485 5.64496C22.2235 5.32347 21.9183 5.14286 21.6 5.14286H20.4V18.8571H21.6C21.9183 18.8571 22.2235 18.6765 22.4485 18.355C22.6736 18.0335 22.8 17.5975 22.8 17.1429V13.7143H24V10.2857H22.8V6.85714Z" fill="white"/>
</svg>
